# xmcd
#
# Track frame offsets:
#	150
#	16063
#	34677
#	51340
#	69504
#	86167
#	103281
#	121445
#	139009
#	155523
#	180886
#	196799
#
# Disc length: 2887 seconds
#
# Revision: 0
# Processed by: cddbd v1.5.1PL0 Copyright (c) Steve Scherf et al.
# Submitted via: dBpowerAMP V4.0
#
DISCID=9b0b450c
DTITLE=SHeDAISY - Sweet Right Here
DYEAR=2004
DGENRE=Country
TTITLE0=Passenger Seat
TTITLE1=Come Home Soon
TTITLE2=Don't Worry About A Thing
TTITLE3=5 4 3 2 Run
TTITLE4=I Dare You
TTITLE5=Without A Sound
TTITLE6=He's A Hero
TTITLE7=360 Degrees Of You
TTITLE8=Borrowed Home
TTITLE9=A Womans Work
TTITLE10=Good Together (Bucket and Chicken)
TTITLE11=Love Goes On
EXTD=
EXTT0=
EXTT1=
EXTT2=
EXTT3=
EXTT4=
EXTT5=
EXTT6=
EXTT7=
EXTT8=
EXTT9=
EXTT10=
EXTT11=
PLAYORDER=
